<svg width="64" height="64" viewBox="180 20 210 210" fill="none" xmlns="http://www.w3.org/2000/svg">
  <rect x="180" y="20" width="210" height="210" rx="44" fill="#030103"/>
  <g stroke="#FF9EBB" stroke-width="14">
    <line y1="-7" x2="98" y2="-7" transform="matrix(1 0 -0.000563673 1 225 216)"/>
    <line y1="-7" x2="128" y2="-7" transform="matrix(1 0 -0.000872029 1 211 202)"/>
    <line y1="-7" x2="42" y2="-7" transform="matrix(0 1 -1 0.000563673 225 132)"/>
    <path d="M316 131.996V173.996"/>
    <line y1="-7" x2="14" y2="-7" transform="matrix(0 1 -1 0.000563673 239 174)"/>
    <line y1="-7" x2="14" y2="-7" transform="matrix(0 1 -1 0.000563673 295 174)"/>
    <line y1="-7" x2="42" y2="-7" transform="matrix(0 1 -1 0.000973429 337 118)"/>
    <line y1="-7" x2="14" y2="-7" transform="matrix(0 1 -1 0.000973429 274 90)"/>
    <line y1="-7" x2="14" y2="-7" transform="matrix(0 1 -1 0.000973429 260 76)"/>
    <line y1="-7" x2="14" y2="-7" transform="matrix(0 1 -1 0.000973429 274 62)"/>
    <line y1="-7" x2="14" y2="-7" transform="matrix(0 1 -1 0.000973429 288 48)"/>
    <line y1="-7" x2="14" y2="-7" transform="matrix(0 1 -1 0.000973429 288 34)"/>
    <line y1="-7" x2="14" y2="-7" transform="matrix(-1 0 0.000973429 -1 337 118)"/>
    <line y1="-7" x2="14" y2="-7" transform="matrix(-1 0 0.000563673 -1 337 146)"/>
    <line y1="-7" x2="98" y2="-7" transform="matrix(1 0 -0.000563673 1 225 132)"/>
  </g>
</svg>
